<?xml version="1.0" encoding="utf-8"?>
<!-- Generator: Adobe Illustrator 23.1.1, SVG Export Plug-In . SVG Version: 6.00 Build 0)  -->
<svg version="1.1" id="Layer_1" xmlns="http://www.w3.org/2000/svg" xmlns:xlink="http://www.w3.org/1999/xlink" x="0px" y="0px"
	 viewBox="0 0 1152 162" style="enable-background:new 0 0 1152 162;" xml:space="preserve">
<style type="text/css">
	.st0{fill:#D00070;}
	.st1{fill:#51585B;}
</style>
<g>
	<path class="st0" d="M764.68,85.33c-3.58-4.36-7.99-6.54-13.25-6.54c-2.31,0-4.46,0.42-6.43,1.26s-3.67,1.98-5.09,3.43
		c-1.42,1.45-2.54,3.17-3.35,5.17c-0.82,2-1.22,4.15-1.22,6.47c0,2.37,0.41,4.55,1.22,6.54c0.81,2,1.94,3.73,3.39,5.2
		c1.45,1.47,3.14,2.63,5.09,3.47c1.94,0.84,4.05,1.26,6.31,1.26c4.94,0,9.38-2.1,13.33-6.31v18.29l-1.58,0.55
		c-2.37,0.84-4.57,1.46-6.62,1.85c-2.05,0.39-4.07,0.59-6.07,0.59c-4.1,0-8.03-0.78-11.79-2.33c-3.76-1.55-7.07-3.73-9.94-6.54
		c-2.87-2.81-5.16-6.15-6.9-10.01c-1.73-3.86-2.6-8.08-2.6-12.66s0.85-8.76,2.56-12.58c1.71-3.81,3.99-7.1,6.86-9.86
		c2.86-2.76,6.19-4.92,9.97-6.47c3.78-1.55,7.75-2.33,11.91-2.33c2.37,0,4.69,0.25,6.98,0.75c2.29,0.5,4.69,1.27,7.21,2.33V85.33z"
		/>
	<path class="st0" d="M789.91,65.46v46.37h18.53v13.09h-33.98V65.46H789.91z"/>
	<path class="st0" d="M811.54,95.19c0-4.42,0.81-8.53,2.44-12.34c1.63-3.81,3.89-7.14,6.78-9.97c2.89-2.84,6.35-5.06,10.37-6.66
		c4.02-1.6,8.45-2.4,13.29-2.4c4.78,0,9.2,0.8,13.25,2.4c4.05,1.6,7.53,3.82,10.45,6.66s5.19,6.16,6.82,9.97
		c1.63,3.81,2.44,7.92,2.44,12.34c0,4.42-0.82,8.53-2.44,12.34c-1.63,3.81-3.9,7.14-6.82,9.97s-6.4,5.06-10.45,6.66
		c-4.05,1.6-8.46,2.41-13.25,2.41c-4.84,0-9.27-0.8-13.29-2.41c-4.02-1.6-7.48-3.82-10.37-6.66c-2.89-2.84-5.15-6.16-6.78-9.97
		C812.35,103.72,811.54,99.6,811.54,95.19z M827.7,95.19c0,2.37,0.45,4.55,1.34,6.54c0.89,2,2.1,3.73,3.63,5.2
		c1.52,1.47,3.3,2.62,5.32,3.43c2.02,0.82,4.17,1.22,6.43,1.22c2.26,0,4.4-0.41,6.43-1.22c2.02-0.81,3.81-1.96,5.36-3.43
		c1.55-1.47,2.77-3.21,3.67-5.2c0.89-2,1.34-4.18,1.34-6.54c0-2.37-0.45-4.55-1.34-6.54c-0.89-2-2.12-3.73-3.67-5.2
		c-1.55-1.47-3.34-2.61-5.36-3.43c-2.02-0.81-4.17-1.22-6.43-1.22c-2.26,0-4.4,0.41-6.43,1.22c-2.02,0.82-3.8,1.96-5.32,3.43
		c-1.53,1.47-2.73,3.21-3.63,5.2C828.15,90.64,827.7,92.82,827.7,95.19z"/>
	<path class="st0" d="M901.61,65.46v32.33c0,1.74,0.07,3.51,0.2,5.32c0.13,1.81,0.52,3.46,1.18,4.93c0.66,1.47,1.7,2.67,3.11,3.59
		c1.42,0.92,3.42,1.38,5.99,1.38c2.57,0,4.56-0.46,5.95-1.38c1.39-0.92,2.43-2.12,3.11-3.59c0.68-1.47,1.09-3.12,1.22-4.93
		c0.13-1.81,0.2-3.59,0.2-5.32V65.46h15.38v34.46c0,9.25-2.12,16.01-6.35,20.26c-4.23,4.26-10.74,6.39-19.52,6.39
		c-8.78,0-15.3-2.13-19.56-6.39c-4.26-4.26-6.39-11.01-6.39-20.26V65.46H901.61z"/>
	<path class="st0" d="M949.42,65.46h22.87c4.05,0,7.85,0.82,11.39,2.44c3.55,1.63,6.65,3.8,9.3,6.51c2.65,2.71,4.74,5.86,6.27,9.46
		c1.52,3.6,2.29,7.37,2.29,11.32c0,3.89-0.75,7.64-2.25,11.24c-1.5,3.6-3.58,6.77-6.23,9.5c-2.66,2.73-5.76,4.92-9.3,6.54
		c-3.55,1.63-7.37,2.44-11.47,2.44h-22.87V65.46z M964.88,111.83h3.55c2.68,0,5.07-0.42,7.18-1.26c2.1-0.84,3.88-2,5.32-3.47
		c1.45-1.47,2.55-3.22,3.31-5.24c0.76-2.02,1.14-4.24,1.14-6.66c0-2.37-0.39-4.57-1.18-6.62c-0.79-2.05-1.91-3.81-3.35-5.28
		c-1.45-1.47-3.22-2.63-5.32-3.47c-2.1-0.84-4.47-1.26-7.1-1.26h-3.55V111.83z"/>
</g>
<g>
	<polygon class="st1" points="179.92,124.92 199.09,26.97 230.37,97.78 262.76,26.97 279.99,124.92 265.89,124.92 257.1,69.92 
		230.13,129.11 203.93,69.87 194.14,124.92 	"/>
	<rect x="295" y="33.81" class="st1" width="13.75" height="91.11"/>
	<polygon class="st1" points="328.64,124.92 328.64,27.62 389.84,96.33 389.84,33.81 403.59,33.81 403.59,130.47 342.38,61.9 
		342.38,124.92 	"/>
	<polygon class="st1" points="478.23,46.74 435.94,46.74 435.94,71.58 467.4,71.58 467.4,84.5 435.94,84.5 435.94,112 478.23,112 
		478.23,124.92 422.19,124.92 422.19,33.81 478.23,33.81 	"/>
	<path class="st1" d="M536.22,86.09l28.2,38.83h-16.82l-26.02-37.29h-12.55v37.29h-13.75V33.81h26.18c12.04,0,20.73,2.26,26.08,6.79
		c5.9,5.03,8.85,11.68,8.85,19.94c0,6.45-1.85,12-5.55,16.64C547.16,81.82,542.28,84.79,536.22,86.09 M509.04,75.65h14.44
		c13.02,0,19.53-4.98,19.53-14.93c0-9.32-6.33-13.98-19-13.98h-14.97V75.65z"/>
	<polygon class="st1" points="576.24,33.81 601.44,96.95 626.98,33.81 642.03,33.81 601.14,131.76 561.19,33.81 	"/>
	<path class="st1" d="M689.4,102.79h-39l-10.15,22.13h-14.81l45.08-96.83L714,124.92h-15.05L689.4,102.79z M683.79,89.87
		l-13.51-30.98l-14.16,30.98H683.79z"/>
</g>
<g>
	<path class="st0" d="M162.85,100.96l-25.11-22.52l24.49,3.41l-4.65-14.32l-32.54-3.95l24-22.32l-4.65-14.32l-17.81,17.15
		l7.08-32.97l-29.17,16.92L115.3,5.8h-15.06L86.43,35.52L72.62,5.8H57.56l10.81,22.24L39.19,11.12l7.08,32.97L28.45,26.94
		L23.8,41.26l24,22.32l-32.58,3.96l-4.61,14.32l24.49-3.41L10,100.96l33.55,3.46l-21.82,11.64l12.18,8.85l28.64-15.93l-6.3,32.16
		L68.44,150l4.33-24.35l13.66,30.84l13.66-30.84l4.33,24.35l12.18-8.85l-6.3-32.16l28.64,15.93l12.18-8.85l-21.82-11.64
		L162.85,100.96z M107.3,93.67l-2.25-11.48l-5.34,12.23l-13.28,1.3l10.23,5.69l-10.23,23.41L76.2,101.4l10.23-5.69l-13.28-1.3
		L67.8,82.18l-2.25,11.48l-25.42-2.49l19.1-16.96l8.57,7.97l-2.87-13.03l9.98-8.86v0L63.3,61.7l-5.48-24.95l22.03,12.93l-4.93,10.61
		l0,0l11.51-6.75l11.51,6.75l-4.93-10.61l22.03-12.93l-5.48,24.95l-11.62-1.41l9.98,8.86l-2.87,13.03l8.57-7.97l19.1,16.96
		L107.3,93.67z"/>
	<polygon class="st0" points="74.92,60.29 74.92,60.29 74.92,60.29 	"/>
</g>
</svg>
